# xmcd
#
# Track frame offsets:
#	150
#	20042
#	31145
#	41042
#	59040
#	67487
#	78470
#	93175
#	105840
#	115337
#	132077
#	141530
#
# Disc length: 2082 seconds
#
# Revision: 2
# Processed by: cddbd v1.4PL0 Copyright (c) Steve Scherf et al.
# Submitted via: dBpowerAMP V4.0
#
DISCID=ad08200c
DTITLE=Marty Robbins - More Greatest Hits
DYEAR=1900
DGENRE=country
TTITLE0=El Paso
TTITLE1=Like All The Other Times
TTITLE2=Is There Any Chance
TTITLE3=Big Iron
TTITLE4=Time and Place For Everything
TTITLE5=Red River Valley
TTITLE6=Don't Worry
TTITLE7=Streets of Laredo
TTITLE8=Saddle Tramp
TTITLE9=Ballad of The Alamo
TTITLE10=I Told My Heart
TTITLE11=Ride Cowboy Ride
EXTD=
EXTT0=
EXTT1=
EXTT2=
EXTT3=
EXTT4=
EXTT5=
EXTT6=
EXTT7=
EXTT8=
EXTT9=
EXTT10=
EXTT11=
PLAYORDER=
